<svg width="21" height="20" viewBox="0 0 21 20" fill="none" xmlns="http://www.w3.org/2000/svg">
<path fill-rule="evenodd" clip-rule="evenodd" d="M4.25 9C4.25 6.1005 6.6005 3.75 9.5 3.75C12.3995 3.75 14.75 6.1005 14.75 9C14.75 11.8995 12.3995 14.25 9.5 14.25C6.6005 14.25 4.25 11.8995 4.25 9ZM9.5 2.25C5.77208 2.25 2.75 5.27208 2.75 9C2.75 12.7279 5.77208 15.75 9.5 15.75C11.0938 15.75 12.5585 15.1976 13.7133 14.2739L17.2192 17.7799C17.5121 18.0728 17.987 18.0728 18.2799 17.7799C18.5728 17.487 18.5728 17.0121 18.2799 16.7192L14.7739 13.2133C15.6976 12.0585 16.25 10.5938 16.25 9C16.25 5.27208 13.2279 2.25 9.5 2.25Z" fill="#8A9099"/>
</svg>
